<?xml version="1.0" encoding="utf-8"?>
<!-- Generator: Adobe Illustrator 26.2.1, SVG Export Plug-In . SVG Version: 6.00 Build 0)  -->
<svg version="1.1"
	 id="svg2" inkscape:version="0.91 r13725" sodipodi:docname="American_Express_2018.svg" xmlns:cc="http://creativecommons.org/ns#" xmlns:dc="http://purl.org/dc/elements/1.1/" xmlns:inkscape="http://www.inkscape.org/namespaces/inkscape" xmlns:rdf="http://www.w3.org/1999/02/22-rdf-syntax-ns#" xmlns:sodipodi="http://sodipodi.sourceforge.net/DTD/sodipodi-0.dtd" xmlns:svg="http://www.w3.org/2000/svg"
	 xmlns="http://www.w3.org/2000/svg" xmlns:xlink="http://www.w3.org/1999/xlink" x="0px" y="0px" viewBox="0 0 1000 997.5"
	 style="enable-background:new 0 0 1000 997.5;" xml:space="preserve">
<style type="text/css">
	.st0{display:none;fill:#016FD0;}
	.st1{fill:#016FD0;}
	.st2{fill:#FFFFFF;}
</style>
<path id="path3078" inkscape:connector-curvature="0" sodipodi:nodetypes="ccccccccccc" class="st0" d="M0,0h997.5v538.5l-49.4,77.1
	l49.4,68.7v313.2H0V489.9l30.9-35.5L0,420.5V0z"/>
<g id="Capa_2">
	<rect class="st1" width="1000" height="997.5"/>
</g>
<g>
	<g>
		
			<path id="path3080" inkscape:connector-curvature="0" sodipodi:nodetypes="cccccccccccccccccccccccccccccccccccccc" class="st2" d="
			M512.3,385.2l60.2-140.3h104.1l34.1,78.6v-78.6h129.4l20.3,56.8l19.7-56.8h580.7v28.6c0,0,30.5-28.6,80.7-28.6l188.4,0.7
			l33.6,77.6v-78.2h108.3l29.8,44.5v-44.5h109.3v252h-109.3l-28.6-44.7v44.7H1714l-16-39.7h-42.8l-15.7,39.7h-107.9
			c-43.2,0-70.8-28-70.8-28v28h-162.6l-32.3-39.7v39.7H661.2l-16-39.7h-42.6l-15.9,39.7h-74.3V385.2z"/>
		<polyline class="st2" points="512.3,496.9 464.1,496.9 512.3,385.2 		"/>
	</g>
	<path id="path3082" inkscape:connector-curvature="0" sodipodi:nodetypes="cccccccccccccccccccc" class="st2" d="M569.4,745.2v-252
		h266.8l28.6,37.3l29.6-37.3h968.6v234.6c0,0-25.3,17.1-54.6,17.4h-536.3l-32.3-39.7v39.7h-105.8v-67.8c0,0-14.4,9.5-45.7,9.5h-36
		v58.3H892.2l-28.6-38.1l-29,38.1H569.4z"/>
	<path id="path3046" inkscape:connector-curvature="0" class="st1" d="M593.8,275.9l-81.2,188.7h52.8l15-37.8h87.1l14.9,37.8h54
		l-81.1-188.7L593.8,275.9L593.8,275.9z M623.8,319.9l26.5,66h-53.2L623.8,319.9z"/>
	<path id="path3048" inkscape:connector-curvature="0" sodipodi:nodetypes="cccccccccccccc" class="st1" d="M742,464.6V275.9
		l75.1,0.3l43.7,121.7l42.6-121.9h74.5v188.7h-47.2v-139l-50,139h-41.4l-50.1-139v139H742z"/>
	<path id="path3050" inkscape:connector-curvature="0" sodipodi:nodetypes="ccccccccccccc" class="st1" d="M1010.2,464.6V275.9
		h153.9v42.2h-106.3v32.3h103.8v39.7h-103.8v33.5h106.3v41L1010.2,464.6z"/>
	<path id="path3052" inkscape:connector-curvature="0" class="st1" d="M1191.4,275.9v188.7h47.2v-67h19.9l56.6,67h57.7l-62.1-69.5
		c25.5-2.1,51.8-24,51.8-58c0-39.7-31.2-61.2-66-61.2L1191.4,275.9L1191.4,275.9z M1238.6,318.2h53.9c12.9,0,22.3,10.1,22.3,19.9
		c0,12.5-12.2,19.9-21.6,19.9h-54.6L1238.6,318.2L1238.6,318.2z"/>
	<path id="path3054" inkscape:connector-curvature="0" sodipodi:nodetypes="ccccc" class="st1" d="M1429.8,464.6h-48.2V275.9h48.2
		V464.6z"/>
	<path id="path3056" inkscape:connector-curvature="0" sodipodi:nodetypes="ccccccccccc" class="st1" d="M1544,464.6h-10.4
		c-50.3,0-80.9-39.6-80.9-93.6c0-55.3,30.2-95.1,93.7-95.1h52.1v44.7h-54c-25.8,0-44,20.1-44,50.9c0,36.5,20.9,51.9,50.9,51.9h12.4
		L1544,464.6z"/>
	<path id="path3058" inkscape:connector-curvature="0" class="st1" d="M1646.7,275.9l-81.2,188.7h52.8l15-37.8h87.1l14.9,37.8h54
		l-81.1-188.7L1646.7,275.9L1646.7,275.9z M1676.7,319.9l26.5,66h-53.2L1676.7,319.9L1676.7,319.9z"/>
	<path id="path3060" inkscape:connector-curvature="0" sodipodi:nodetypes="ccccccccccc" class="st1" d="M1794.8,464.6V275.9h60
		l76.6,118.6V275.9h47.2v188.7h-58L1842,343v121.7H1794.8z"/>
	<path id="path3062" inkscape:connector-curvature="0" sodipodi:nodetypes="ccccccccccccc" class="st1" d="M601.7,712.9V524.2h153.9
		v42.2H649.4v32.3h103.8v39.7H649.4v33.5h106.3v41L601.7,712.9z"/>
	<path id="path3064" inkscape:connector-curvature="0" sodipodi:nodetypes="ccccccccccccc" class="st1" d="M1356,712.9V524.2H1510
		v42.2h-106.3v32.3H1507v39.7h-103.3v33.5H1510v41L1356,712.9z"/>
	<path id="path3066" inkscape:connector-curvature="0" sodipodi:nodetypes="ccccccccccccc" class="st1" d="M761.6,712.9l75-93.2
		l-76.7-95.5h59.4l45.7,59l45.9-59h57.1l-75.7,94.4l75.1,94.4h-59.4l-44.4-58.1l-43.3,58.1L761.6,712.9z"/>
	<path id="path3068" inkscape:connector-curvature="0" class="st1" d="M972.9,524.2v188.7h48.4v-59.6h49.7c42,0,73.9-22.3,73.9-65.6
		c0-35.9-25-63.5-67.7-63.5H972.9L972.9,524.2z M1021.3,566.9h52.3c13.6,0,23.3,8.3,23.3,21.7c0,12.6-9.7,21.7-23.4,21.7h-52.1
		V566.9L1021.3,566.9z"/>
	<path id="path3072" inkscape:connector-curvature="0" class="st1" d="M1165.3,524.2v188.7h47.2v-67h19.9l56.6,67h57.7l-62.1-69.5
		c25.5-2.2,51.8-24,51.8-58c0-39.7-31.2-61.2-66-61.2L1165.3,524.2L1165.3,524.2z M1212.5,566.4h53.9c12.9,0,22.3,10.1,22.3,19.9
		c0,12.5-12.2,19.9-21.6,19.9h-54.6V566.4z"/>
	<path id="path3074" inkscape:connector-curvature="0" sodipodi:nodetypes="ccccccccccccccccc" class="st1" d="M1531.8,712.9v-41
		h94.4c14,0,20-7.5,20-15.8c0-7.9-6-16-20-16h-42.7c-37.1,0-57.7-22.6-57.7-56.5c0-30.3,18.9-59.4,74-59.4h91.9l-19.9,42.5h-79.5
		c-15.2,0-19.9,8-19.9,15.6c0,7.8,5.8,16.4,17.4,16.4h44.7c41.3,0,59.3,23.5,59.3,54.2c0,33-20,60.1-61.5,60.1H1531.8z"/>
	<path id="path3076" inkscape:connector-curvature="0" sodipodi:nodetypes="ccccccccccccccccc" class="st1" d="M1705,712.9v-41h94.4
		c14,0,20-7.5,20-15.8c0-7.9-6-16-20-16h-42.7c-37.1,0-57.7-22.6-57.7-56.5c0-30.3,18.9-59.4,74-59.4h91.9l-19.9,42.5h-79.5
		c-15.2,0-19.9,8-19.9,15.6c0,7.8,5.8,16.4,17.4,16.4h44.7c41.3,0,59.3,23.5,59.3,54.2c0,33-20,60.1-61.5,60.1H1705z"/>
</g>
</svg>
